<?xml version="1.0" encoding="UTF-8" standalone="no"?>
<!DOCTYPE svg PUBLIC "-//W3C//DTD SVG 1.1//EN" "http://www.w3.org/Graphics/SVG/1.1/DTD/svg11.dtd">
<svg version="1.1" xmlns="http://www.w3.org/2000/svg" xmlns:xlink="http://www.w3.org/1999/xlink" preserveAspectRatio="xMidYMid meet" viewBox="0 0 640 640" width="640" height="640"><defs><path d="M379.44 321.37C379.44 334.14 368.92 344.51 355.97 344.51C343.02 344.51 332.5 334.14 332.5 321.37C332.5 308.6 343.02 298.23 355.97 298.23C368.92 298.23 379.44 308.6 379.44 321.37Z" id="a4pvwE6S0T"></path><path d="M355.97 313.2C355.97 316.95 351.86 320 346.79 320C341.72 320 337.6 316.95 337.6 313.2C337.6 309.44 341.72 306.39 346.79 306.39C351.86 306.39 355.97 309.44 355.97 313.2Z" id="iGZORI3kd"></path><path d="M260.57 321.37C260.57 334.14 250.05 344.51 237.1 344.51C224.15 344.51 213.63 334.14 213.63 321.37C213.63 308.6 224.15 298.23 237.1 298.23C250.05 298.23 260.57 308.6 260.57 321.37Z" id="c15VmShvdD"></path><path d="M239.39 313.2C239.39 316.95 236.04 320 231.91 320C227.78 320 224.43 316.95 224.43 313.2C224.43 309.44 227.78 306.39 231.91 306.39C236.04 306.39 239.39 309.44 239.39 313.2Z" id="d4e2steY64"></path><path d="M363.68 325.53C363.68 328.58 360.94 331.06 357.56 331.06C354.18 331.06 351.43 328.58 351.43 325.53C351.43 322.48 354.18 320 357.56 320C360.94 320 363.68 322.48 363.68 325.53Z" id="a3G5BcIMLx"></path><path d="M245.52 325.53C245.52 328.58 242.77 331.06 239.39 331.06C236.02 331.06 233.27 328.58 233.27 325.53C233.27 322.48 236.02 320 239.39 320C242.77 320 245.52 322.48 245.52 325.53Z" id="f3cVFMe2"></path></defs><g><g><g><use xlink:href="#a4pvwE6S0T" opacity="1" fill="#54c0d5" fill-opacity="1"></use></g><g><use xlink:href="#iGZORI3kd" opacity="1" fill="#ffffff" fill-opacity="1"></use></g><g><use xlink:href="#c15VmShvdD" opacity="1" fill="#54c0d5" fill-opacity="1"></use></g><g><use xlink:href="#d4e2steY64" opacity="1" fill="#ffffff" fill-opacity="1"></use></g><g><use xlink:href="#a3G5BcIMLx" opacity="1" fill="#3c2626" fill-opacity="1"></use></g><g><use xlink:href="#f3cVFMe2" opacity="1" fill="#3c2626" fill-opacity="1"></use></g></g></g></svg>