<?xml version="1.0" encoding="UTF-8" standalone="no"?>
<!DOCTYPE svg PUBLIC "-//W3C//DTD SVG 1.1//EN" "http://www.w3.org/Graphics/SVG/1.1/DTD/svg11.dtd">
<svg version="1.1" xmlns="http://www.w3.org/2000/svg" xmlns:xlink="http://www.w3.org/1999/xlink" preserveAspectRatio="xMidYMid meet" viewBox="0 0 640 640" width="640" height="640"><defs><path d="M464.37 271C498.5 226.5 504.87 99.22 487.1 94.22C473.43 90.38 428.69 118.36 352.91 178.16C404.46 269.72 441.62 300.66 464.37 271Z" id="a7BbabQK4"></path><path d="M125.98 271C91.85 226.5 85.48 99.22 103.25 94.22C116.92 90.38 161.66 118.36 237.44 178.16C185.89 269.72 148.73 300.66 125.98 271Z" id="a21NgYJtt2"></path><path d="M145.35 284.45C115.91 245.06 109.94 132.02 125.15 127.51C136.86 124.04 175.33 148.72 240.55 201.55C196.72 283.08 164.98 310.72 145.35 284.45Z" id="e5WGMrQXR"></path><path d="M485.4 344.51C485.4 445.69 401.12 527.84 297.31 527.84C193.49 527.84 109.21 445.69 109.21 344.51C109.21 243.33 193.49 161.18 297.31 161.18C401.12 161.18 485.4 243.33 485.4 344.51Z" id="a4I4pxyXgp"></path><path d="M448.11 284.45C477.55 245.06 483.52 132.02 468.31 127.51C456.6 124.04 418.13 148.72 352.91 201.55C396.74 283.08 428.47 310.72 448.11 284.45Z" id="b16mAPtTb2"></path><path d="M447.31 355.57C447.31 438.92 380.09 506.59 297.31 506.59C214.52 506.59 147.31 438.92 147.31 355.57C147.31 272.22 214.52 204.55 297.31 204.55C380.09 204.55 447.31 272.22 447.31 355.57Z" id="bNkaM3nL0"></path><path d="" id="f115YZdA8I"></path><path d="" id="bjFxxPrpI"></path><path d="M338.71 374.08C334.96 384.25 327.78 387.85 317.15 384.9C310.18 382.97 305.21 377.81 302.23 369.41C301.1 366.23 296.55 366.39 295.64 369.64C293.32 377.94 289.17 383.03 283.2 384.9C273.8 387.85 266.26 384.25 260.57 374.08" id="b2uyc7tbDl"></path><path d="M306.4 350.04C306.4 353.09 302.29 355.57 297.22 355.57C292.15 355.57 288.03 353.09 288.03 350.04C288.03 346.99 292.15 344.51 297.22 344.51C302.29 344.51 306.4 346.99 306.4 350.04Z" id="e4j7Po8gd"></path></defs><g><g><g><use xlink:href="#a7BbabQK4" opacity="1" fill="#6e6e6e" fill-opacity="1"></use><g><use xlink:href="#a7BbabQK4" opacity="1" fill-opacity="0" stroke="#c5c5c5" stroke-width="1" stroke-opacity="1"></use></g></g><g><use xlink:href="#a21NgYJtt2" opacity="1" fill="#6e6e6e" fill-opacity="1"></use><g><use xlink:href="#a21NgYJtt2" opacity="1" fill-opacity="0" stroke="#c5c5c5" stroke-width="1" stroke-opacity="1"></use></g></g><g><use xlink:href="#e5WGMrQXR" opacity="1" fill="#c5c5c5" fill-opacity="1"></use><g><use xlink:href="#e5WGMrQXR" opacity="1" fill-opacity="0" stroke="#c5c5c5" stroke-width="1" stroke-opacity="1"></use></g></g><g><use xlink:href="#a4I4pxyXgp" opacity="1" fill="#c5c5c5" fill-opacity="1"></use></g><g><use xlink:href="#b16mAPtTb2" opacity="1" fill="#c5c5c5" fill-opacity="1"></use><g><use xlink:href="#b16mAPtTb2" opacity="1" fill-opacity="0" stroke="#c5c5c5" stroke-width="1" stroke-opacity="1"></use></g></g><g><use xlink:href="#bNkaM3nL0" opacity="1" fill="#6e6e6e" fill-opacity="1"></use></g><g><g><use xlink:href="#f115YZdA8I" opacity="1" fill-opacity="0" stroke="#5f5252" stroke-width="1" stroke-opacity="1"></use></g></g><g><g><use xlink:href="#bjFxxPrpI" opacity="1" fill-opacity="0" stroke="#483a3a" stroke-width="1" stroke-opacity="1"></use></g></g><g><g><use xlink:href="#b2uyc7tbDl" opacity="1" fill-opacity="0" stroke="#363636" stroke-width="4" stroke-opacity="1"></use></g></g><g><use xlink:href="#e4j7Po8gd" opacity="1" fill="#363636" fill-opacity="1"></use></g></g></g></svg>